<?xml version="1.0" encoding="UTF-8"?>
<svg xmlns="http://www.w3.org/2000/svg" xmlns:xlink="http://www.w3.org/1999/xlink" width="532.5pt" height="517.49999pt" viewBox="0 0 532.5 517.49999" version="1.2">
<defs>
<clipPath id="clip1">
  <path d="M 230 256 L 258 256 L 258 359.96875 L 230 359.96875 Z M 230 256 "/>
</clipPath>
<clipPath id="clip2">
  <path d="M 147.058594 152 L 342 152 L 342 359.96875 L 147.058594 359.96875 Z M 147.058594 152 "/>
</clipPath>
</defs>
<g id="surface1">
<path style=" stroke:none;fill-rule:evenodd;fill:rgb(89.408875%,89.7995%,89.7995%);fill-opacity:1;" d="M 443.601562 396.96875 C 333.902344 568.003906 230.035156 513.296875 141.414062 373.210938 C 106.210938 317.566406 -93.214844 135.050781 82.640625 68.6875 C 119.804688 54.664062 175.269531 48.320312 252.605469 41.183594 C 460.167969 22.015625 589.792969 169.035156 443.601562 396.96875 "/>
<path style=" stroke:none;fill-rule:nonzero;fill:rgb(29.798889%,33.729553%,68.629456%);fill-opacity:1;" d="M 257.234375 152.765625 L 244.054688 256.296875 L 230.875 152.765625 Z M 257.234375 152.765625 "/>
<g clip-path="url(#clip1)" clip-rule="nonzero">
<path style=" stroke:none;fill-rule:nonzero;fill:rgb(29.798889%,33.729553%,68.629456%);fill-opacity:1;" d="M 230.875 359.828125 L 244.054688 256.296875 L 257.234375 359.828125 Z M 230.875 359.828125 "/>
</g>
<path style=" stroke:none;fill-rule:nonzero;fill:rgb(31.759644%,78.039551%,95.689392%);fill-opacity:1;" d="M 365.898438 121.460938 C 350.289062 127.386719 342.441406 144.859375 348.371094 160.476562 C 354.3125 176.09375 371.78125 183.9375 387.40625 178 C 403.039062 172.058594 410.875 154.597656 404.945312 138.980469 C 399.003906 123.363281 381.535156 115.519531 365.898438 121.460938 "/>
<path style=" stroke:none;fill-rule:nonzero;fill:rgb(29.798889%,33.729553%,68.629456%);fill-opacity:1;" d="M 371.804688 136.96875 C 364.738281 139.640625 361.203125 147.53125 363.886719 154.585938 C 366.570312 161.640625 374.453125 165.183594 381.511719 162.5 C 388.566406 159.820312 392.113281 151.925781 389.429688 144.875 C 386.746094 137.820312 378.863281 134.285156 371.804688 136.96875 "/>
<path style=" stroke:none;fill-rule:nonzero;fill:rgb(29.798889%,33.729553%,68.629456%);fill-opacity:1;" d="M 370.679688 225.792969 L 285.925781 257.996094 L 282.703125 249.515625 L 358.960938 220.535156 L 336.054688 160.296875 L 378.957031 144 L 382.179688 152.476562 L 347.773438 165.554688 L 370.679688 225.792969 "/>
<path style=" stroke:none;fill-rule:nonzero;fill:rgb(31.759644%,78.039551%,95.689392%);fill-opacity:1;" d="M 442.480469 285.566406 C 435.628906 300.808594 417.726562 307.613281 402.488281 300.761719 C 387.238281 293.921875 380.433594 276.019531 387.285156 260.785156 C 394.125 245.542969 412.039062 238.738281 427.277344 245.589844 C 442.515625 252.425781 449.332031 270.332031 442.480469 285.566406 "/>
<path style=" stroke:none;fill-rule:nonzero;fill:rgb(29.798889%,33.729553%,68.629456%);fill-opacity:1;" d="M 427.335938 278.773438 C 424.257812 285.660156 416.171875 288.726562 409.28125 285.636719 C 402.394531 282.546875 399.324219 274.464844 402.417969 267.578125 C 405.507812 260.703125 413.59375 257.625 420.484375 260.714844 C 427.359375 263.804688 430.441406 271.886719 427.335938 278.773438 "/>
<path style=" stroke:none;fill-rule:nonzero;fill:rgb(29.798889%,33.729553%,68.629456%);fill-opacity:1;" d="M 401.9375 313.0625 L 300.628906 267.589844 L 304.351562 259.3125 L 397.371094 301.074219 L 412.457031 267.503906 L 420.734375 271.21875 L 401.9375 313.0625 "/>
<g clip-path="url(#clip2)" clip-rule="nonzero">
<path style=" stroke:none;fill-rule:nonzero;fill:rgb(29.798889%,33.729553%,68.629456%);fill-opacity:1;" d="M 312.882812 226.570312 L 341.0625 214.40625 L 317.171875 180.035156 L 295.917969 202.203125 C 285.292969 192.011719 272.402344 185.542969 258.910156 182.835938 L 264.996094 152.765625 L 223.125 152.765625 L 229.199219 182.835938 C 215.707031 185.554688 202.828125 192.011719 192.199219 202.203125 L 170.945312 180.035156 L 147.050781 214.40625 L 175.222656 226.570312 C 167.054688 245.492188 167.054688 267.085938 175.222656 286.007812 L 147.050781 298.175781 L 170.945312 332.546875 L 192.1875 310.378906 C 202.816406 320.582031 215.707031 327.035156 229.199219 329.753906 L 223.125 359.828125 L 264.996094 359.828125 L 258.910156 329.753906 C 272.402344 327.035156 285.292969 320.582031 295.917969 310.378906 L 317.171875 332.546875 L 341.0625 298.175781 L 312.882812 286.007812 C 321.054688 267.085938 321.054688 245.492188 312.882812 226.570312 "/>
</g>
<path style=" stroke:none;fill-rule:nonzero;fill:rgb(31.759644%,78.039551%,95.689392%);fill-opacity:1;" d="M 275.097656 225.265625 C 257.953125 208.117188 230.15625 208.117188 213.011719 225.265625 C 195.867188 242.402344 195.867188 270.1875 213.011719 287.324219 C 230.15625 304.460938 257.953125 304.460938 275.097656 287.324219 C 292.242188 270.1875 292.242188 242.402344 275.097656 225.265625 "/>
</g>
</svg>
