<?xml version="1.0" encoding="UTF-8"?><svg xmlns="http://www.w3.org/2000/svg" xmlns:xlink="http://www.w3.org/1999/xlink" contentScriptType="text/ecmascript" width="75pt" zoomAndPan="magnify" contentStyleType="text/css" viewBox="0 0 75 74.999997" height="74.999997pt" preserveAspectRatio="xMidYMid meet" version="1.2"><defs><g/></defs><g xml:id="surface1" id="surface1"><g style="fill:rgb(100%,100%,100%);fill-opacity:1;"><g transform="translate(22.282241, 51.112579)"><path style="stroke:none;" d="M 1.8125 0 C 1.570312 0 1.359375 -0.0859375 1.171875 -0.265625 C 0.992188 -0.453125 0.90625 -0.664062 0.90625 -0.90625 C 0.90625 -1.0625 0.921875 -1.226562 0.953125 -1.40625 L 12.203125 -30.765625 C 12.328125 -31.066406 12.492188 -31.304688 12.703125 -31.484375 C 12.910156 -31.671875 13.226562 -31.765625 13.65625 -31.765625 L 16.75 -31.765625 C 17.164062 -31.765625 17.476562 -31.671875 17.6875 -31.484375 C 17.90625 -31.304688 18.078125 -31.066406 18.203125 -30.765625 L 29.40625 -1.40625 C 29.46875 -1.226562 29.5 -1.0625 29.5 -0.90625 C 29.5 -0.664062 29.40625 -0.453125 29.21875 -0.265625 C 29.039062 -0.0859375 28.832031 0 28.59375 0 L 26.265625 0 C 25.910156 0 25.648438 -0.0859375 25.484375 -0.265625 C 25.316406 -0.453125 25.203125 -0.617188 25.140625 -0.765625 L 22.640625 -7.21875 L 7.765625 -7.21875 L 5.265625 -0.765625 C 5.234375 -0.617188 5.125 -0.453125 4.9375 -0.265625 C 4.757812 -0.0859375 4.488281 0 4.125 0 Z M 9.078125 -11.109375 L 21.328125 -11.109375 L 15.203125 -27.21875 Z M 9.078125 -11.109375 "/></g></g></g></svg>