<?xml version="1.0" encoding="UTF-8"?><svg xmlns="http://www.w3.org/2000/svg" xmlns:xlink="http://www.w3.org/1999/xlink" contentScriptType="text/ecmascript" width="75pt" zoomAndPan="magnify" contentStyleType="text/css" viewBox="0 0 75 74.999997" height="74.999997pt" preserveAspectRatio="xMidYMid meet" version="1.2"><defs><g/></defs><g xml:id="surface1" id="surface1"><g style="fill:rgb(100%,100%,100%);fill-opacity:1;"><g transform="translate(22.164076, 51.112571)"><path style="stroke:none;" d="M 24.40625 2.953125 C 24.019531 2.953125 23.703125 2.820312 23.453125 2.5625 C 23.210938 2.300781 23.019531 2.082031 22.875 1.90625 L 21.015625 -0.640625 C 19.378906 0.0859375 17.488281 0.453125 15.34375 0.453125 C 12.769531 0.453125 10.554688 0.0078125 8.703125 -0.875 C 6.859375 -1.769531 5.429688 -3.144531 4.421875 -5 C 3.410156 -6.863281 2.859375 -9.207031 2.765625 -12.03125 C 2.734375 -13.351562 2.71875 -14.628906 2.71875 -15.859375 C 2.71875 -17.085938 2.734375 -18.363281 2.765625 -19.6875 C 2.859375 -22.476562 3.429688 -24.800781 4.484375 -26.65625 C 5.546875 -28.519531 7.003906 -29.910156 8.859375 -30.828125 C 10.722656 -31.753906 12.882812 -32.21875 15.34375 -32.21875 C 17.820312 -32.21875 19.988281 -31.753906 21.84375 -30.828125 C 23.707031 -29.910156 25.164062 -28.519531 26.21875 -26.65625 C 27.28125 -24.800781 27.84375 -22.476562 27.90625 -19.6875 C 27.96875 -18.363281 28 -17.085938 28 -15.859375 C 28 -14.628906 27.96875 -13.351562 27.90625 -12.03125 C 27.75 -7.882812 26.660156 -4.78125 24.640625 -2.71875 L 27.640625 1.546875 C 27.660156 1.578125 27.6875 1.628906 27.71875 1.703125 C 27.75 1.773438 27.765625 1.890625 27.765625 2.046875 C 27.796875 2.285156 27.71875 2.492188 27.53125 2.671875 C 27.351562 2.859375 27.128906 2.953125 26.859375 2.953125 Z M 15.34375 -3.40625 C 17.632812 -3.40625 19.519531 -4.097656 21 -5.484375 C 22.488281 -6.878906 23.289062 -9.132812 23.40625 -12.25 C 23.46875 -13.613281 23.5 -14.832031 23.5 -15.90625 C 23.5 -16.976562 23.46875 -18.179688 23.40625 -19.515625 C 23.351562 -21.597656 22.96875 -23.289062 22.25 -24.59375 C 21.539062 -25.894531 20.597656 -26.847656 19.421875 -27.453125 C 18.242188 -28.054688 16.882812 -28.359375 15.34375 -28.359375 C 13.851562 -28.359375 12.507812 -28.054688 11.3125 -27.453125 C 10.125 -26.847656 9.179688 -25.894531 8.484375 -24.59375 C 7.785156 -23.289062 7.394531 -21.597656 7.3125 -19.515625 C 7.28125 -18.179688 7.265625 -16.976562 7.265625 -15.90625 C 7.265625 -14.832031 7.28125 -13.613281 7.3125 -12.25 C 7.425781 -9.132812 8.222656 -6.878906 9.703125 -5.484375 C 11.191406 -4.097656 13.070312 -3.40625 15.34375 -3.40625 Z M 15.34375 -3.40625 "/></g></g></g></svg>